<svg width="21" height="21" viewBox="0 0 21 21" fill="none" xmlns="http://www.w3.org/2000/svg">
<path d="M7 19.25C7.48325 19.25 7.875 18.8582 7.875 18.375C7.875 17.8918 7.48325 17.5 7 17.5C6.51675 17.5 6.125 17.8918 6.125 18.375C6.125 18.8582 6.51675 19.25 7 19.25Z" stroke="currentColor" stroke-width="1.09375" stroke-linecap="round" stroke-linejoin="round"/>
<path d="M16.625 19.25C17.1082 19.25 17.5 18.8582 17.5 18.375C17.5 17.8918 17.1082 17.5 16.625 17.5C16.1418 17.5 15.75 17.8918 15.75 18.375C15.75 18.8582 16.1418 19.25 16.625 19.25Z" stroke="currentColor" stroke-width="1.09375" stroke-linecap="round" stroke-linejoin="round"/>
<path d="M1.79395 1.79376H3.54395L5.87144 12.6613C5.95683 13.0593 6.17828 13.4151 6.49769 13.6674C6.8171 13.9197 7.21449 14.0528 7.62144 14.0438H16.1789C16.5772 14.0431 16.9634 13.9066 17.2736 13.6569C17.5838 13.4071 17.7996 13.059 17.8852 12.67L19.3289 6.16876H4.4802" stroke="currentColor" stroke-width="1.09375" stroke-linecap="round" stroke-linejoin="round"/>
</svg>
