<svg width="20" height="20" viewBox="0 0 20 20" fill="none" xmlns="http://www.w3.org/2000/svg">
<path d="M6.01538 0C2.70242 0 0 2.70242 0 6.01538V13.8615C0 17.1741 2.70232 19.8769 6.01538 19.8769H13.8615C17.1742 19.8769 19.8769 17.1742 19.8769 13.8615V6.01538C19.8769 2.70232 17.1741 0 13.8615 0H6.01538ZM6.01538 1.56923H13.8615C16.3259 1.56923 18.3077 3.55054 18.3077 6.01538V13.8615C18.3077 16.3258 16.3258 18.3077 13.8615 18.3077H6.01538C3.55054 18.3077 1.56923 16.3259 1.56923 13.8615V6.01538C1.56923 3.55044 3.55044 1.56923 6.01538 1.56923ZM15.1692 3.66154C14.5912 3.66154 14.1231 4.12969 14.1231 4.70769C14.1231 5.28569 14.5912 5.75385 15.1692 5.75385C15.7472 5.75385 16.2154 5.28569 16.2154 4.70769C16.2154 4.12969 15.7472 3.66154 15.1692 3.66154ZM9.93846 4.70769C7.05902 4.70769 4.70769 7.05902 4.70769 9.93846C4.70769 12.8179 7.05902 15.1692 9.93846 15.1692C12.8179 15.1692 15.1692 12.8179 15.1692 9.93846C15.1692 7.05902 12.8179 4.70769 9.93846 4.70769ZM9.93846 6.27692C11.9697 6.27692 13.6 7.90726 13.6 9.93846C13.6 11.9697 11.9697 13.6 9.93846 13.6C7.90726 13.6 6.27692 11.9697 6.27692 9.93846C6.27692 7.90726 7.90726 6.27692 9.93846 6.27692Z" fill="white"/>
</svg>
